# xmcd CD database file generated by OrangeCD 5.2
#
# Track frame offsets:
#	150
#	12311
#	24934
#	43911
#	62209
#	79184
#	97374
#	113156
#	131624
#	146365
#	160987
#	176614
#	191224
#	207544
#	224911
#
# Disc length: 3326 seconds
#
# Revision: 4
# Processed by: cddbd v1.5.1PL0 Copyright (c) Steve Scherf et al.
# Submitted via: OrangeCD 5.2
#
DISCID=e90cfc0f
DTITLE=Rob Rio and The Revolvers - Boogie Woogie Valentine
DYEAR=1998
DGENRE=Blues
TTITLE0=Boogie Woogie Valentine
TTITLE1=Like Poison Ivy
TTITLE2=Ode to 'Fess'
TTITLE3=I Want To Be Seduced
TTITLE4=Home To My Honey
TTITLE5=Fun With Yancy
TTITLE6=Jump 'n Jive
TTITLE7=Kansas City
TTITLE8=It Should Have Been Me
TTITLE9=Honky Tonk Piano
TTITLE10=Choo Choo Ch'Boogie
TTITLE11=Albert Meets Pete
TTITLE12=Since I Met You Baby
TTITLE13=Sea Cruise
TTITLE14=Jambalaya
EXTD=
EXTT0=
EXTT1=
EXTT2=
EXTT3=
EXTT4=
EXTT5=
EXTT6=
EXTT7=
EXTT8=
EXTT9=
EXTT10=
EXTT11=
EXTT12=
EXTT13=
EXTT14=
PLAYORDER=
